<svg width="104" height="61" viewBox="0 0 104 61" fill="none" xmlns="http://www.w3.org/2000/svg">
<path d="M25.8252 40.9885C25.6783 40.9885 25.5304 40.9885 25.3836 40.8416L11.9859 35.8363C11.3974 35.6894 11.1027 34.9531 11.2496 34.3636L17.138 8.01042C17.138 7.71568 17.4328 7.42197 17.7265 7.27408C18.0212 7.12723 18.3149 6.97935 18.6097 7.12723L26.2656 8.89361C27.0019 9.04046 27.8851 8.89361 28.6214 8.59887L39.8102 2.26875C41.4298 1.38556 43.3439 1.23767 44.9636 2.12189L48.0558 3.59455C48.4974 3.74141 48.7922 4.18301 48.7922 4.62563C48.7922 5.06722 48.6453 5.50882 48.2037 5.80355L41.1372 9.92584C40.6956 10.2206 40.4009 10.5143 40.4009 10.9569L37.4567 21.9987C37.1619 23.1767 37.7514 24.3546 38.9293 24.7963L40.6957 25.5326C41.2842 25.8274 42.0205 25.6795 42.6099 25.3858C43.1984 25.091 43.641 24.5026 43.7879 23.9131L45.9958 15.6688C46.2906 14.4909 47.0269 13.6077 48.0569 13.0193L52.4739 10.6634C53.0624 10.3687 53.7987 10.5166 54.0934 11.105C54.3882 11.6935 54.2403 12.4298 53.6518 12.7246L49.2348 15.0804C48.7932 15.3751 48.4985 15.6688 48.3516 16.1115L46.1437 24.3558C45.849 25.6806 44.9658 26.7116 43.7879 27.3C42.61 27.8884 41.1383 28.0363 39.9603 27.5947L38.1939 26.8584C35.8381 25.9752 34.6603 23.4725 35.2497 21.1166L38.1939 10.0748C38.4886 9.04373 39.225 8.16057 40.1081 7.57212L45.1135 4.62789L44.2303 4.1863C43.3471 3.7447 42.1692 3.7447 41.2861 4.33315L30.0973 10.6633C28.9194 11.3996 27.4478 11.5465 25.975 11.2517L19.4969 9.77906L14.0498 33.9239L26.4164 38.6356C27.0049 38.9303 27.2996 39.5188 27.1528 40.2551C26.7081 40.6947 26.2665 40.9884 25.8249 40.9884L25.8252 40.9885Z" fill="#2F942A"/>
<path d="M74.7037 42.1663C74.5569 42.1663 74.2622 42.1663 74.1153 42.0195C73.5268 41.7247 73.379 40.9884 73.6737 40.3999L76.7659 35.0999L62.0435 26.7075C61.455 26.4128 61.3072 25.6765 61.6019 25.088C61.8966 24.4996 62.633 24.3517 63.2214 24.6464L78.975 33.6271C79.5634 33.9219 79.7113 34.6582 79.4166 35.2466L75.7359 41.7248C75.4402 42.0195 75.1465 42.1664 74.7038 42.1664L74.7037 42.1663Z" fill="#2F942A"/>
<path d="M78.2371 35.8356C78.0903 35.8356 77.7955 35.8356 77.6487 35.6887C77.0602 35.394 76.9123 34.6577 77.2071 34.0692L79.5629 30.0939C80.0045 29.3576 79.7098 28.4744 78.9745 28.0328L52.177 12.4273C51.5885 12.1325 51.4406 11.3962 51.7354 10.8077C52.0301 10.2193 52.7664 10.0714 53.3549 10.3661L80.1498 25.825C82.064 26.8561 82.6525 29.3586 81.6224 31.272L79.2666 35.2474C79.1187 35.6879 78.6771 35.8358 78.2355 35.8358L78.2371 35.8356Z" fill="#2F942A"/>
<path d="M71.0231 48.6441C70.8763 48.6441 70.5815 48.6441 70.4347 48.4972C69.8462 48.2025 69.6983 47.4662 69.9931 46.8777L73.0853 41.5776L58.3629 33.1853C57.7744 32.8906 57.6265 32.1543 57.9213 31.5658C58.216 30.9773 58.9523 30.8295 59.5408 31.1242L75.2943 40.1049C75.8828 40.3996 76.0307 41.136 75.7359 41.7244L72.0553 48.2026C71.9074 48.3494 71.4658 48.6442 71.0232 48.6442L71.0231 48.6441Z" fill="#2F942A"/>
<path d="M66.3119 54.0915C65.5756 54.0915 64.9871 53.9446 64.3977 53.503L54.9753 48.056C54.3869 47.7612 54.239 47.0249 54.5337 46.4365C54.8285 45.848 55.5648 45.7001 56.1532 45.9949L65.4287 51.2949C65.7234 51.4418 66.165 51.5897 66.6066 51.4418C67.0482 51.2949 67.3429 51.0002 67.4898 50.7055L69.1093 47.7612L54.3868 39.3689C53.7984 39.0742 53.6505 38.3378 53.9452 37.7494C54.24 37.1609 54.9763 37.0131 55.5648 37.3078L71.3183 46.2885C71.9068 46.5832 72.0547 47.3196 71.7599 47.908L69.8457 52.0303C69.2572 52.9135 68.5209 53.6498 67.4899 53.9445C67.0483 53.9445 66.7535 54.0914 66.3119 54.0914V54.0915Z" fill="#2F942A"/>
<path d="M46.8783 60.8639C46.142 60.8639 45.5535 60.717 44.8172 60.2754L40.8419 58.0675C40.5471 57.9206 40.4003 57.6259 40.2534 57.3312C40.1066 57.0364 40.2534 56.7427 40.4003 56.448L48.0562 42.9033C48.2031 42.6086 48.4978 42.4617 48.7926 42.3149C49.0873 42.168 49.381 42.3149 49.6757 42.4617L56.1539 46.1423C56.4486 46.2892 56.5955 46.5839 56.7423 46.8787C56.8892 47.1734 56.7423 47.4671 56.5955 47.7619L50.2653 58.8037C49.6769 59.6869 48.7927 60.4232 47.7627 60.7179C47.6148 60.8638 47.1732 60.8638 46.8785 60.8638L46.8783 60.8639ZM43.1977 56.5949L46.1419 58.2144C46.5835 58.3613 47.0251 58.5092 47.3198 58.3613C47.7614 58.2144 48.0562 57.9197 48.3509 57.6249L54.0927 47.6142L49.8237 45.1115L43.1977 56.5949Z" fill="#2F942A"/>
<path d="M41.431 58.2138C41.2841 58.2138 40.9894 58.2138 40.8425 58.0669L34.3644 54.3863C34.0697 54.2394 33.9228 53.9447 33.7759 53.6499C33.6291 53.3552 33.7759 53.0615 33.9228 52.7668L40.2529 41.578C40.8414 40.6948 41.5777 39.9584 42.6088 39.8116C43.6398 39.5168 44.6698 39.6647 45.553 40.2532L49.6753 42.609C49.97 42.7559 50.1169 43.0506 50.2637 43.3453C50.4106 43.6401 50.2637 43.9338 50.1169 44.2285L42.4609 57.7732C42.3141 58.0679 42.0193 58.2148 41.7246 58.3616C41.7256 58.2138 41.5777 58.2138 41.4309 58.2138H41.431ZM36.7203 52.9137L40.9893 55.4164L47.4675 43.9328L44.3752 42.1665C44.0805 42.0196 43.6389 41.8717 43.1973 42.0196C42.7557 42.1665 42.461 42.3143 42.3141 42.7559L36.7203 52.9137Z" fill="#2F942A"/>
<path d="M35.1004 54.5332C34.9535 54.5332 34.6588 54.5332 34.5119 54.3863L28.0338 50.7057C27.4453 50.411 27.2974 49.6746 27.5922 49.0862L32.4506 40.5472C33.4816 38.6329 35.8365 38.0445 37.7507 39.0745L41.8729 41.4303C42.4614 41.7251 42.6093 42.4614 42.3145 43.0499L36.1311 53.9447C35.9842 54.2395 35.6895 54.3863 35.3948 54.5332H35.1H35.1004ZM30.2419 49.2331L34.5109 51.7358L39.5163 43.0498L36.4241 41.2834C36.1293 41.1366 35.6877 40.9887 35.2461 41.1366C34.8045 41.2834 34.5098 41.4313 34.3629 41.8729L30.2419 49.2331Z" fill="#2F942A"/>
<path d="M28.6224 50.8525C28.4756 50.8525 28.1809 50.8525 28.034 50.7057L24.0587 48.4967C23.1755 47.9082 22.4391 47.024 22.1444 45.994C21.8497 44.9629 21.9976 43.7861 22.586 42.9018L24.6471 39.2211C25.2356 38.338 25.9719 37.6016 27.0029 37.4548C28.034 37.16 29.064 37.3079 29.9472 37.8964L34.0695 40.2522C34.6579 40.5469 34.8058 41.2833 34.5111 41.8717L29.6526 50.4107C29.5058 50.7055 29.2111 50.8523 28.9163 50.9992C28.9163 50.8523 28.7695 50.8523 28.6226 50.8523L28.6224 50.8525ZM28.033 39.6629H27.5914C27.1498 39.8098 26.855 39.9577 26.7082 40.3993L24.6471 44.0799C24.5002 44.5215 24.3524 44.9631 24.5002 45.2578C24.6471 45.6994 24.9418 45.9941 25.2366 46.2889L28.1808 47.9084L31.8614 41.4303L28.7692 39.6639C28.6223 39.6628 28.3276 39.6628 28.0328 39.6628L28.033 39.6629Z" fill="#2F942A"/>
<path d="M75.8816 39.9578C75.2931 39.9578 74.8505 39.5162 74.7036 39.0746C74.5568 38.4862 74.9984 37.7498 75.5868 37.602L90.3103 34.363L85.1569 10.0715L73.9681 12.2794C72.6434 12.5742 71.1706 12.2794 69.9928 11.5431L55.712 3.15077C54.681 2.56232 53.5041 2.56232 52.4731 3.15077L48.0561 5.5066C47.4677 5.80134 46.7313 5.65346 46.4366 5.06501C46.1418 4.47656 46.2897 3.74022 46.8782 3.44549L51.2952 1.08966C53.0616 0.0585876 55.2705 0.20647 56.89 1.23651L71.1707 9.62884C71.9071 10.0704 72.6434 10.2173 73.3787 10.0704L85.7453 7.7146C86.3337 7.56775 87.0701 8.00934 87.218 8.59779L92.9597 35.2454C93.1066 35.8339 92.665 36.5702 92.0765 36.7181L76.323 40.2517C76.0293 39.958 76.0293 39.958 75.8814 39.958L75.8816 39.9578Z" fill="#2F942A"/>
<path d="M92.8123 41.4301C92.2239 41.4301 91.7813 40.9885 91.6344 40.399L83.8315 4.03456C83.6847 3.44611 84.1263 2.70978 84.7147 2.56189L94.7254 0.501831C95.0202 0.501831 95.3139 0.501828 95.6086 0.648682C95.9034 0.795536 96.0502 1.09028 96.1971 1.38502L104 37.7495C104 38.0442 104 38.3379 103.853 38.6327C103.706 38.9274 103.412 39.0743 103.117 39.2211L92.958 41.4291C92.9591 41.4301 92.8122 41.4301 92.8122 41.4301H92.8123ZM86.3342 4.77118L93.6954 38.7801L101.498 37.1605L94.1371 3.15166L86.3342 4.77118Z" fill="#2F942A"/>
<path d="M11.25 40.9885H10.9552L0.944468 38.7806C0.64973 38.7806 0.356018 38.4858 0.208136 38.1921C0.0612824 37.8974 -0.086603 37.6037 0.0612815 37.3089L7.86418 0.944468C7.86418 0.64973 8.15892 0.356018 8.45263 0.208136C8.74737 0.0612824 9.04109 -0.086603 9.33582 0.0612815L19.4946 2.26923C20.083 2.41608 20.5257 3.00556 20.3778 3.74189L12.5749 40.1064C12.428 40.548 11.8396 40.9895 11.2501 40.9895L11.25 40.9885ZM2.71093 36.7195L10.5138 38.3391L17.8751 4.33019L10.0722 2.71067L2.71093 36.7195Z" fill="#2F942A"/>
</svg>
